<?xml version="1.0" encoding="UTF-8" standalone="no"?>
<!-- Created with Inkscape (http://www.inkscape.org/) -->

<svg
   width="1080"
   height="1080"
   viewBox="0 0 285.74999 285.75"
   version="1.1"
   id="svg5"
   xmlns:xlink="http://www.w3.org/1999/xlink"
   xmlns="http://www.w3.org/2000/svg"
   xmlns:svg="http://www.w3.org/2000/svg">
  <defs
     id="defs2">
    <linearGradient
       id="linearGradient33668">
      <stop
         style="stop-color:#03a678;stop-opacity:1;"
         offset="0"
         id="stop33664" />
      <stop
         style="stop-color:#03a678;stop-opacity:1;"
         offset="1"
         id="stop33666" />
    </linearGradient>
    <linearGradient
       xlink:href="#linearGradient33668"
       id="linearGradient12576"
       gradientUnits="userSpaceOnUse"
       gradientTransform="matrix(1.0699144,0,0,1.2943039,119.6092,-298.48586)"
       x1="77.574623"
       y1="197.6306"
       x2="77.574623"
       y2="101.95522" />
  </defs>
  <g
     id="layer1">
    <rect
       style="fill:#03a678;fill-opacity:1;stroke-width:0.240617"
       id="rect111-2-2"
       width="48.21801"
       height="100.22708"
       x="58.752567"
       y="-192.14812"
       ry="6.8531332"
       transform="scale(1,-1)" />
    <path
       id="rect111-2-2-3"
       style="fill:#03a678;stroke-width:0.280472"
       d="m 127.04806,-56.644604 c -5.15857,0 -9.31158,-4.153012 -9.31158,-9.311576 v -117.55768 c 0,-1.81403 0.51534,-3.5025 1.4056,-4.93096 -1.13516,4.18504 1.0539,8.6943 5.21984,10.34975 1.69225,0.67247 3.4529,0.76196 5.08186,0.38602 -1.79284,-0.48376 -3.42008,-1.68601 -4.32274,-3.48092 3.11686,2.72785 6.57196,3.37339 10.388,1.98747 -1.21023,1.19362 -2.76205,1.73542 -4.32067,1.73117 4.29504,3.08169 8.53981,7.90495 8.78448,15.02595 l 5.8043,-0.0693 c -0.0987,-2.87689 0.46958,-8.28 5.23689,-13.21107 0.4917,-0.50993 1.03028,-1.01304 1.61178,-1.50947 -1.5005,0.28852 -3.12396,0.0724 -4.56819,-0.75913 4.06754,0.54535 7.25634,-0.83654 9.59166,-4.14238 -0.36247,1.89473 -1.53018,3.34424 -3.04581,4.18734 4.35813,1.57311 9.13025,-0.55101 10.758,-4.85397 0.2738,-0.7238 0.40465,-1.46285 0.47387,-2.20193 0.0776,0.48558 0.11938,0.98329 0.11938,1.49138 v 117.55768 c 0,5.158564 -4.15303,9.311576 -9.31158,9.311576 z m 17.3147,-55.864806 c 0.5373,-0.006 1.06801,-0.21623 1.464,-0.632 4.94979,-5.18709 9.89305,-10.86177 11.15745,-18.03921 0.67174,-3.78263 0.34802,-7.76312 -0.58239,-11.61893 3.35221,-3.97421 3.68711,-14.54795 3.68711,-14.54795 0,0 -4.67105,0.47609 -7.64191,1.00046 -0.64141,0.11321 -1.20641,0.2283 -1.62419,0.34209 -0.75775,-1.24909 -2.47652,-3.65846 -2.56108,-3.73982 -0.40508,-0.38675 -0.9447,-0.60424 -1.50637,-0.59634 l -8.06101,0.0894 c -0.6815,0.0133 -1.3134,0.35567 -1.68516,0.91519 -0.70716,1.06401 -1.40277,2.25257 -2.08153,3.51554 -0.83989,-0.20349 -2.24068,-0.40081 -3.70468,-0.57154 -2.70994,-0.31848 -5.63997,-0.54674 -5.63997,-0.54674 0,0 1.05929,10.55753 4.67413,14.45442 -0.66004,3.86881 -0.71472,7.85424 0.21394,11.62203 1.75971,7.14653 6.86036,12.47268 12.38839,17.75602 0.42198,0.40384 0.96597,0.60308 1.50327,0.59738 z m -0.60255,-16.73645 c -0.51091,0.01 -1.03452,-0.0809 -1.54357,-0.28318 -2.03578,-0.80898 -3.06683,-3.10076 -2.30374,-5.11804 0.76359,-2.01852 3.03213,-2.99799 5.06791,-2.18901 2.0362,0.80914 3.0668,3.09951 2.30322,5.11803 -0.57233,1.51296 -1.99103,2.44322 -3.52382,2.4722 z m -6.19135,-52.13273 c -2.4839,-3.69351 -0.43777,-8.68374 3.699,-9.7777 -3.20107,2.48373 -4.41851,5.73361 -3.699,9.7777 z m -2.63911,-10.64896 c 0.0533,-0.28023 0.14474,-0.53798 0.23202,-0.79789 h 0.4036 c -0.21548,0.25789 -0.433,0.51103 -0.63562,0.79789 z"
       transform="scale(1,-1)" />
    <rect
       style="fill:url(#linearGradient12576);fill-opacity:1;stroke-width:0.311353"
       id="rect111-2-2-0"
       width="48.21801"
       height="167.82007"
       x="178.49844"
       y="-191.38713"
       ry="11.474874"
       transform="scale(1,-1)" />
    <text
       xml:space="preserve"
       style="font-size:79.5045px;fill:#03a678;fill-opacity:1;stroke-width:6.62538"
       x="56.966835"
       y="257.94849"
       id="text17651"><tspan
         id="tspan17649"
         style="font-style:normal;font-variant:normal;font-weight:normal;font-stretch:normal;font-size:79.5045px;font-family:Haettenschweiler;-inkscape-font-specification:'Haettenschweiler, Normal';font-variant-ligatures:normal;font-variant-caps:normal;font-variant-numeric:normal;font-variant-east-asian:normal;fill:#03a678;fill-opacity:1;stroke-width:6.62538"
         x="56.966835"
         y="257.94849">FINAN$</tspan></text>
  </g>
</svg>
